<svg xmlns='http://www.w3.org/2000/svg' width='220' height='130' viewBox='0 0 220 130'><path d="M75.5 124 Q77.9 105 79.3 92.9" stroke="#7C8F45" stroke-width="2" fill="none" stroke-linecap="round"/><path d="M26.2 124 Q24.0 97 22.8 79.8" stroke="#7C8F45" stroke-width="2" fill="none" stroke-linecap="round"/><path d="M23.4 124 Q16.0 98 11.5 80.7" stroke="#7C8F45" stroke-width="2" fill="none" stroke-linecap="round"/><path d="M97.0 124 Q90.4 107 86.5 95.6" stroke="#7C8F45" stroke-width="2" fill="none" stroke-linecap="round"/><path d="M95.2 124 Q89.2 92 85.6 69.9" stroke="#7C8F45" stroke-width="2" fill="none" stroke-linecap="round"/><path d="M55.8 124 Q62.9 96 67.2 76.7" stroke="#7C8F45" stroke-width="2" fill="none" stroke-linecap="round"/><path d="M125.1 124 Q132.7 100 137.3 84.5" stroke="#7C8F45" stroke-width="2" fill="none" stroke-linecap="round"/><path d="M21.1 124 Q17.8 91 15.7 68.8" stroke="#7C8F45" stroke-width="2" fill="none" stroke-linecap="round"/><path d="M40.3 124 Q37.2 106 35.4 94.0" stroke="#7C8F45" stroke-width="2" fill="none" stroke-linecap="round"/><path d="M172.0 124 Q173.3 105 174.0 91.9" stroke="#7C8F45" stroke-width="2" fill="none" stroke-linecap="round"/><path d="M137.2 124 Q138.0 101 138.4 85.3" stroke="#7C8F45" stroke-width="2" fill="none" stroke-linecap="round"/><path d="M24.3 124 Q19.6 107 16.8 96.0" stroke="#7C8F45" stroke-width="2" fill="none" stroke-linecap="round"/><path d="M145.4 124 Q142.4 100 140.6 83.5" stroke="#7C8F45" stroke-width="2" fill="none" stroke-linecap="round"/><path d="M126.8 124 Q123.6 99 121.6 82.6" stroke="#7C8F45" stroke-width="2" fill="none" stroke-linecap="round"/><path d="M167.7 124 Q163.6 94 161.1 74.2" stroke="#7C8F45" stroke-width="2" fill="none" stroke-linecap="round"/><path d="M124.6 124 Q130.6 98 134.2 80.1" stroke="#7C8F45" stroke-width="2" fill="none" stroke-linecap="round"/><path d="M155.0 124 Q162.7 103 167.3 88.2" stroke="#7C8F45" stroke-width="2" fill="none" stroke-linecap="round"/><path d="M35.1 124 Q39.3 100 41.7 83.8" stroke="#7C8F45" stroke-width="2" fill="none" stroke-linecap="round"/><path d="M41.8 124 Q34.4 98 30.0 81.4" stroke="#7C8F45" stroke-width="2" fill="none" stroke-linecap="round"/><path d="M143.0 124 Q144.1 93 144.8 72.0" stroke="#7C8F45" stroke-width="2" fill="none" stroke-linecap="round"/><path d="M183.6 124 Q186.7 102 188.6 87.3" stroke="#7C8F45" stroke-width="2" fill="none" stroke-linecap="round"/><path d="M128.5 124 Q127.8 97 127.4 78.3" stroke="#7C8F45" stroke-width="2" fill="none" stroke-linecap="round"/><path d="M172.6 124 Q167.3 79 165.2 34.5" stroke="#8C9C6A" stroke-width="2.2" fill="none" stroke-linecap="round"/><path d="M169.9 83.7 q-7 -3 -10 3 q5 4 10 -3z" fill="#8C9C6A"/><circle cx="165.2" cy="34.5" r="4.6" fill="#F2C230"/><circle cx="163.8" cy="33.2" r="1.9" fill="#FBF5E9" opacity="0.5"/><path d="M200.7 124 Q205.4 82 207.2 40.2" stroke="#8C9C6A" stroke-width="2.2" fill="none" stroke-linecap="round"/><path d="M203.1 86.3 q-7 -3 -10 3 q5 4 10 -3z" fill="#8C9C6A"/><circle cx="207.2" cy="40.2" r="3.6" fill="#EBA6C0"/><circle cx="206.1" cy="39.1" r="1.5" fill="#FBF5E9" opacity="0.5"/><path d="M103.0 124 Q97.7 97 95.5 70.3" stroke="#8C9C6A" stroke-width="2.2" fill="none" stroke-linecap="round"/><path d="M100.3 99.8 q-7 -3 -10 3 q5 4 10 -3z" fill="#8C9C6A"/><circle cx="99.3" cy="70.3" r="2.3" fill="#FBF5E9"/><circle cx="97.4" cy="73.5" r="2.3" fill="#FBF5E9"/><circle cx="93.7" cy="73.5" r="2.3" fill="#FBF5E9"/><circle cx="91.8" cy="70.3" r="2.3" fill="#FBF5E9"/><circle cx="93.7" cy="67.0" r="2.3" fill="#FBF5E9"/><circle cx="97.4" cy="67.0" r="2.3" fill="#FBF5E9"/><circle cx="95.5" cy="70.3" r="2.6" fill="#F2C230"/><path d="M63.6 124 Q59.6 92 58.0 60.0" stroke="#8C9C6A" stroke-width="2.2" fill="none" stroke-linecap="round"/><path d="M61.6 95.2 q-7 -3 -10 3 q5 4 10 -3z" fill="#8C9C6A"/><circle cx="58.0" cy="60.0" r="4.5" fill="#F2C230"/><circle cx="56.6" cy="58.7" r="1.8" fill="#FBF5E9" opacity="0.5"/><path d="M180.5 124 Q183.0 82 184.0 40.3" stroke="#8C9C6A" stroke-width="2.2" fill="none" stroke-linecap="round"/><path d="M181.8 86.3 q-7 -3 -10 3 q5 4 10 -3z" fill="#8C9C6A"/><circle cx="184.0" cy="40.3" r="4.7" fill="#C9B7E6"/><circle cx="182.6" cy="38.9" r="1.9" fill="#FBF5E9" opacity="0.5"/><path d="M88.0 124 Q83.8 96 82.1 67.4" stroke="#8C9C6A" stroke-width="2.2" fill="none" stroke-linecap="round"/><path d="M85.9 98.5 q7 -3 10 3 q-5 4 -10 -3z" fill="#8C9C6A"/><circle cx="85.8" cy="67.4" r="2.2" fill="#FBF5E9"/><circle cx="83.9" cy="70.5" r="2.2" fill="#FBF5E9"/><circle cx="80.3" cy="70.5" r="2.2" fill="#FBF5E9"/><circle cx="78.5" cy="67.4" r="2.2" fill="#FBF5E9"/><circle cx="80.3" cy="64.3" r="2.2" fill="#FBF5E9"/><circle cx="83.9" cy="64.3" r="2.2" fill="#FBF5E9"/><circle cx="82.1" cy="67.4" r="2.5" fill="#F2C230"/><path d="M170.9 124 Q166.7 97 165.0 69.6" stroke="#8C9C6A" stroke-width="2.2" fill="none" stroke-linecap="round"/><path d="M168.8 99.5 q-7 -3 -10 3 q5 4 10 -3z" fill="#8C9C6A"/><circle cx="165.0" cy="69.6" r="4.6" fill="#F2C230"/><circle cx="163.6" cy="68.2" r="1.8" fill="#FBF5E9" opacity="0.5"/><path d="M76.6 124 Q78.5 98 79.2 72.2" stroke="#8C9C6A" stroke-width="2.2" fill="none" stroke-linecap="round"/><path d="M77.6 100.7 q7 -3 10 3 q-5 4 -10 -3z" fill="#8C9C6A"/><circle cx="79.2" cy="72.2" r="4.3" fill="#FBF5E9"/><circle cx="77.9" cy="70.9" r="1.7" fill="#FBF5E9" opacity="0.5"/><path d="M178.3 124 Q177.0 79 176.5 34.2" stroke="#8C9C6A" stroke-width="2.2" fill="none" stroke-linecap="round"/><path d="M177.6 83.6 q-7 -3 -10 3 q5 4 10 -3z" fill="#8C9C6A"/><circle cx="176.5" cy="34.2" r="4.2" fill="#FBF5E9"/><circle cx="175.2" cy="32.9" r="1.7" fill="#FBF5E9" opacity="0.5"/></svg>